<?xml version="1.0" standalone="no"?>
<!DOCTYPE svg PUBLIC "-//W3C//DTD SVG 20010904//EN"
 "http://www.w3.org/TR/2001/REC-SVG-20010904/DTD/svg10.dtd">
<svg version="1.0" xmlns="http://www.w3.org/2000/svg"
 width="700.000000pt" height="700.000000pt" viewBox="0 0 700.000000 700.000000"
 preserveAspectRatio="xMidYMid meet">
<metadata>
Created by potrace 1.14, written by Peter Selinger 2001-2017
</metadata>
<g transform="translate(0.000000,700.000000) scale(0.100000,-0.100000)"
fill="#000000" stroke="none">
<path d="M1838 5820 c-47 -8 -50 -11 -422 -292 -343 -258 -350 -265 -350 -369
-1 -68 31 -124 94 -165 33 -22 52 -27 100 -26 73 0 82 5 269 146 77 58 143
106 146 106 3 0 5 -415 5 -922 0 -604 4 -936 10 -960 22 -79 106 -141 190
-141 84 0 168 62 190 141 14 52 14 2293 -1 2345 -12 43 -59 101 -100 122 -34
18 -83 24 -131 15z"/>
<path d="M3070 5823 c-42 -7 -183 -54 -223 -75 -177 -89 -325 -253 -395 -436
-53 -136 -57 -201 -56 -807 1 -566 3 -602 27 -695 52 -196 193 -386 363 -488
238 -143 541 -155 785 -31 236 119 403 354 437 614 5 39 9 333 7 655 -2 561
-3 588 -23 662 -79 288 -310 517 -592 587 -71 17 -263 26 -330 14z m331 -440
c73 -40 137 -109 178 -193 l36 -75 0 -595 c-1 -592 -1 -595 -23 -650 -113
-280 -459 -356 -672 -148 -27 27 -61 70 -74 96 -51 100 -52 116 -50 717 1 618
0 603 66 708 113 178 354 241 539 140z"/>
<path d="M4995 5820 c-163 -32 -353 -140 -455 -257 -81 -93 -168 -262 -185
-358 -4 -22 -10 -49 -13 -60 -2 -11 -6 -288 -7 -615 -1 -538 0 -603 16 -677
34 -157 93 -270 198 -385 165 -178 379 -269 618 -262 102 2 126 6 219 35 267
82 474 304 544 584 22 88 23 101 23 675 0 322 -3 605 -6 630 -50 342 -312 622
-642 685 -81 16 -243 18 -310 5z m319 -424 c111 -49 202 -163 230 -286 17 -79
15 -1136 -3 -1200 -80 -280 -396 -395 -635 -231 -59 41 -121 123 -149 197 -21
58 -21 70 -23 627 -1 427 1 580 11 615 66 251 334 382 569 278z"/>
<path d="M1280 2719 c-82 -7 -132 -36 -168 -98 -31 -54 -36 -136 -9 -187 20
-39 79 -91 115 -101 15 -5 1055 -8 2312 -8 l2285 0 35 21 c80 47 119 155 89
246 -18 55 -88 115 -143 123 -54 8 -4429 12 -4516 4z"/>
<path d="M1237 1939 c-117 -31 -180 -146 -142 -259 19 -56 74 -110 127 -126
21 -6 874 -10 2309 -9 l2276 0 48 30 c111 69 130 218 39 309 -64 64 123 59
-2367 60 -1247 1 -2277 -2 -2290 -5z"/>
</g>
</svg>
